<svg width="182" height="35" viewBox="0 0 182 35" fill="none" xmlns="http://www.w3.org/2000/svg">
<path d="M22.4198 2.416L22.8882 1.53247L22.8882 1.53247L22.4198 2.416ZM28.5638 8.368L27.6922 8.85826L27.6959 8.86475L27.6996 8.87119L28.5638 8.368ZM28.5638 25.936L27.6969 25.4375L27.6922 25.4457L28.5638 25.936ZM22.3718 31.888L21.9078 31.0022L21.9034 31.0045L22.3718 31.888ZM0.483813 34H-0.516187V35H0.483813V34ZM0.483813 0.303999V-0.696001H-0.516187V0.303999H0.483813ZM8.69181 7.312V6.312H7.69181V7.312H8.69181ZM8.69181 26.896H7.69181V27.896H8.69181V26.896ZM13.1078 1.304C16.5261 1.304 19.4638 1.98077 21.9514 3.29953L22.8882 1.53247C20.0638 0.035224 16.7935 -0.696001 13.1078 -0.696001V1.304ZM21.9514 3.29953C24.4423 4.62 26.3485 6.46937 27.6922 8.85826L29.4354 7.87774C27.8991 5.14663 25.7093 3.02799 22.8882 1.53247L21.9514 3.29953ZM27.6996 8.87119C29.071 11.2263 29.7718 13.976 29.7718 17.152H31.7718C31.7718 13.672 31.0006 10.5657 29.428 7.86481L27.6996 8.87119ZM29.7718 17.152C29.7718 20.2938 29.0719 23.0462 27.6969 25.4375L29.4307 26.4345C30.9997 23.7058 31.7718 20.6022 31.7718 17.152H29.7718ZM27.6922 25.4457C26.3503 27.8315 24.4306 29.6807 21.9078 31.0022L22.8358 32.7738C25.6891 31.2793 27.8974 29.1605 29.4354 26.4263L27.6922 25.4457ZM21.9034 31.0045C19.4145 32.3239 16.4925 33 13.1078 33V35C16.7632 35 20.0171 34.2681 22.8402 32.7715L21.9034 31.0045ZM13.1078 33H0.483813V35H13.1078V33ZM1.48381 34V0.303999H-0.516187V34H1.48381ZM0.483813 1.304H13.1078V-0.696001H0.483813V1.304ZM12.5798 27.896C15.8686 27.896 18.5647 26.9929 20.5283 25.0657L19.1273 23.6383C17.635 25.1031 15.499 25.896 12.5798 25.896V27.896ZM20.5283 25.0657C22.498 23.1324 23.4198 20.4449 23.4198 17.152H21.4198C21.4198 20.0671 20.6136 22.1796 19.1273 23.6383L20.5283 25.0657ZM23.4198 17.152C23.4198 13.8581 22.4977 11.1597 20.5349 9.19689L19.1207 10.6111C20.6139 12.1043 21.4198 14.2379 21.4198 17.152H23.4198ZM20.5349 9.19689C18.5721 7.2341 15.8737 6.312 12.5798 6.312V8.312C15.4939 8.312 17.6275 9.1179 19.1207 10.6111L20.5349 9.19689ZM12.5798 6.312H8.69181V8.312H12.5798V6.312ZM7.69181 7.312V26.896H9.69181V7.312H7.69181ZM8.69181 27.896H12.5798V25.896H8.69181V27.896ZM81.7268 0.303999L82.6945 0.556252L83.0209 -0.696001H81.7268V0.303999ZM72.9428 34V35H73.7155L73.9105 34.2523L72.9428 34ZM63.0068 34L62.035 34.2356L62.2203 35H63.0068V34ZM57.6308 11.824L58.6027 11.5884L56.6609 11.5805L57.6308 11.824ZM52.0628 34V35H52.8428L53.0327 34.2435L52.0628 34ZM42.1268 34L41.1575 34.2458L41.3487 35H42.1268V34ZM33.5828 0.303999V-0.696001H32.2976L32.6135 0.549782L33.5828 0.303999ZM42.3668 0.303999L43.3478 0.110098L43.1885 -0.696001H42.3668V0.303999ZM47.2148 24.832L46.2338 25.0259L48.1862 25.0696L47.2148 24.832ZM53.2148 0.303999V-0.696001H52.4299L52.2435 0.0663864L53.2148 0.303999ZM62.2388 0.303999L63.2123 0.0753844L63.0312 -0.696001H62.2388V0.303999ZM67.9988 24.832L67.0253 25.0606L68.9795 25.0277L67.9988 24.832ZM72.8948 0.303999V-0.696001H72.0747L71.9142 0.108252L72.8948 0.303999ZM80.7592 0.0517454L71.9752 33.7477L73.9105 34.2523L82.6945 0.556252L80.7592 0.0517454ZM72.9428 33H63.0068V35H72.9428V33ZM63.9787 33.7644L58.6027 11.5884L56.659 12.0596L62.035 34.2356L63.9787 33.7644ZM56.6609 11.5805L51.0929 33.7565L53.0327 34.2435L58.6007 12.0675L56.6609 11.5805ZM52.0628 33H42.1268V35H52.0628V33ZM43.0961 33.7542L34.5521 0.0582157L32.6135 0.549782L41.1575 34.2458L43.0961 33.7542ZM33.5828 1.304H42.3668V-0.696001H33.5828V1.304ZM41.3858 0.497899L46.2338 25.0259L48.1958 24.6381L43.3478 0.110098L41.3858 0.497899ZM48.1862 25.0696L54.1862 0.541611L52.2435 0.0663864L46.2435 24.5944L48.1862 25.0696ZM53.2148 1.304H62.2388V-0.696001H53.2148V1.304ZM61.2653 0.532614L67.0253 25.0606L68.9723 24.6034L63.2123 0.0753844L61.2653 0.532614ZM68.9795 25.0277L73.8755 0.499746L71.9142 0.108252L67.0182 24.6363L68.9795 25.0277ZM72.8948 1.304H81.7268V-0.696001H72.8948V1.304ZM94.0512 0.303999H95.0512V-0.696001H94.0512V0.303999ZM94.0512 34V35H95.0512V34H94.0512ZM85.8432 34H84.8432V35H85.8432V34ZM85.8432 0.303999V-0.696001H84.8432V0.303999H85.8432ZM93.0512 0.303999V34H95.0512V0.303999H93.0512ZM94.0512 33H85.8432V35H94.0512V33ZM86.8432 34V0.303999H84.8432V34H86.8432ZM85.8432 1.304H94.0512V-0.696001H85.8432V1.304ZM131.147 28.048L132.094 27.7272L131.864 27.048H131.147V28.048ZM118.571 28.048V27.048H117.854L117.624 27.7272L118.571 28.048ZM116.555 34V35H117.272L117.502 34.3208L116.555 34ZM107.963 34L107.023 33.6598L106.538 35H107.963V34ZM120.155 0.303999V-0.696001H119.454L119.215 -0.0362379L120.155 0.303999ZM129.659 0.303999L130.6 -0.036238L130.361 -0.696001H129.659V0.303999ZM141.851 34V35H143.277L142.792 33.6598L141.851 34ZM133.163 34L132.216 34.3208L132.446 35H133.163V34ZM129.035 21.712V22.712H130.43L129.983 21.3914L129.035 21.712ZM124.859 9.376L125.807 9.05535L124.854 6.24112L123.911 9.05866L124.859 9.376ZM120.731 21.712L119.783 21.3947L119.342 22.712H120.731V21.712ZM131.147 27.048H118.571V29.048H131.147V27.048ZM117.624 27.7272L115.608 33.6792L117.502 34.3208L119.518 28.3688L117.624 27.7272ZM116.555 33H107.963V35H116.555V33ZM108.904 34.3402L121.096 0.644236L119.215 -0.0362379L107.023 33.6598L108.904 34.3402ZM120.155 1.304H129.659V-0.696001H120.155V1.304ZM128.719 0.644236L140.911 34.3402L142.792 33.6598L130.6 -0.036238L128.719 0.644236ZM141.851 33H133.163V35H141.851V33ZM134.11 33.6792L132.094 27.7272L130.2 28.3688L132.216 34.3208L134.11 33.6792ZM129.983 21.3914L125.807 9.05535L123.912 9.69665L128.088 22.0326L129.983 21.3914ZM123.911 9.05866L119.783 21.3947L121.68 22.0293L125.808 9.69333L123.911 9.05866ZM120.731 22.712H129.035V20.712H120.731V22.712ZM166.682 0.303999H167.682V-0.696001H166.682V0.303999ZM163.658 31.456L162.968 30.7318L162.963 30.7374L163.658 31.456ZM147.05 31.312L146.365 32.0405L146.365 32.0405L147.05 31.312ZM143.834 22.72V21.72H142.834V22.72H143.834ZM151.994 22.72H152.994V21.72H151.994V22.72ZM152.858 25.936L152.07 26.5523L152.077 26.5608L152.084 26.5692L152.858 25.936ZM157.658 26.032L156.896 25.3844L156.896 25.3844L157.658 26.032ZM158.474 0.303999V-0.696001H157.474V0.303999H158.474ZM165.682 0.303999V23.248H167.682V0.303999H165.682ZM165.682 23.248C165.682 26.6061 164.735 29.0494 162.968 30.7319L164.348 32.1801C166.613 30.0226 167.682 26.9939 167.682 23.248H165.682ZM162.963 30.7374C161.206 32.4376 158.789 33.336 155.594 33.336V35.336C159.183 35.336 162.142 34.3144 164.353 32.1746L162.963 30.7374ZM155.594 33.336C152.241 33.336 149.657 32.3903 147.735 30.5835L146.365 32.0405C148.731 34.2657 151.843 35.336 155.594 35.336V33.336ZM147.735 30.5835C145.842 28.8033 144.834 26.2328 144.834 22.72H142.834C142.834 26.6312 143.97 29.7887 146.365 32.0405L147.735 30.5835ZM143.834 23.72H151.994V21.72H143.834V23.72ZM150.994 22.72C150.994 24.2435 151.302 25.571 152.07 26.5523L153.645 25.3197C153.261 24.829 152.994 24.0125 152.994 22.72H150.994ZM152.084 26.5692C152.888 27.5515 154.031 27.992 155.354 27.992V25.992C154.501 25.992 153.98 25.7285 153.632 25.3028L152.084 26.5692ZM155.354 27.992C156.581 27.992 157.651 27.5843 158.42 26.6796L156.896 25.3844C156.577 25.7597 156.111 25.992 155.354 25.992V27.992ZM158.42 26.6796C159.174 25.7929 159.474 24.5973 159.474 23.248H157.474C157.474 24.3307 157.23 24.9911 156.896 25.3844L158.42 26.6796ZM159.474 23.248V0.303999H157.474V23.248H159.474ZM158.474 1.304H166.682V-0.696001H158.474V1.304ZM181.52 0.303999H182.52V-0.696001H181.52V0.303999ZM181.52 34V35H182.52V34H181.52ZM173.312 34H172.312V35H173.312V34ZM173.312 0.303999V-0.696001H172.312V0.303999H173.312ZM180.52 0.303999V34H182.52V0.303999H180.52ZM181.52 33H173.312V35H181.52V33ZM174.312 34V0.303999H172.312V34H174.312ZM173.312 1.304H181.52V-0.696001H173.312V1.304Z" fill="#205295"/>
</svg>
